<svg xmlns="http://www.w3.org/2000/svg" viewBox="0 0 315.78 129.41"><defs><style>.cls-1{fill:#57a55c;}.cls-2{fill:#fff;}.cls-3{fill:#010101;}.cls-4{fill:#d9523e;}.cls-5{fill:#d9513f;}.cls-6{fill:#597ebf;}.cls-7{fill:none;}</style></defs><title>main-logo</title><g id="katman_2" data-name="katman 2"><g id="katman_1-2" data-name="katman 1"><path class="cls-1" d="M148.6,36a8,8,0,0,0,5.56,3.21V34.18A3.06,3.06,0,0,1,153,33.5Z"/><path class="cls-1" d="M158,30.61A3.29,3.29,0,0,1,158,32l4.39,2.54a8,8,0,0,0,0-6.43Z"/><path class="cls-1" d="M155.94,34.18v5.07A8,8,0,0,0,161.51,36l-4.4-2.54A3,3,0,0,1,155.94,34.18Z"/><path class="cls-1" d="M155.05,30a1.25,1.25,0,1,0,1.25,1.24A1.25,1.25,0,0,0,155.05,30Z"/><path class="cls-1" d="M161.51,26.53a8.08,8.08,0,0,0-5.57-3.22v5.08a2.87,2.87,0,0,1,1.17.68Z"/><path class="cls-1" d="M152,31.28a3,3,0,0,1,.08-.67l-4.39-2.54a7.94,7.94,0,0,0,0,6.43L152.1,32A3,3,0,0,1,152,31.28Z"/><path class="cls-1" d="M154.16,28.39V23.31a8.06,8.06,0,0,0-5.56,3.22L153,29.07A2.93,2.93,0,0,1,154.16,28.39Z"/><rect class="cls-1" x="178.04" y="37.86" width="1.78" height="11.05"/><path class="cls-2" d="M168.24,37.31a.89.89,0,0,1,.89-.89h2.48a.72.72,0,0,1,0-.25,17.11,17.11,0,0,0,.7-4.89,17.29,17.29,0,1,0-17.29,17.29h21.21V38.21h-7.13A.89.89,0,0,1,168.24,37.31Zm-28.39-3,0-.09a.89.89,0,0,1,.71-1,.88.88,0,0,1,1,.7l0,.08a.9.9,0,0,1-.7,1.05h-.18A.9.9,0,0,1,139.85,34.33Zm12.66,12.23h-.16a15.53,15.53,0,0,1-11.57-9.21.89.89,0,1,1,1.64-.7,13.64,13.64,0,0,0,10.24,8.15.9.9,0,0,1,.72,1A.88.88,0,0,1,152.51,46.56Zm11.07-10.44,0,.07,0,.05a9.8,9.8,0,1,1,0-9.93l0,.07a.25.25,0,0,1,0,.07,9.77,9.77,0,0,1,0,9.67Zm3.06,1.82a.87.87,0,0,1-.63.27.9.9,0,0,1-.89-.9.89.89,0,0,1,.89-.89.89.89,0,0,1,.89.89A.86.86,0,0,1,166.64,37.94Z"/><path class="cls-1" d="M184,9.42a31.42,31.42,0,0,0-23.14-9h-38V64.76h38v0a31.52,31.52,0,0,0,23-9,31.47,31.47,0,0,0,8.92-23A31.37,31.37,0,0,0,184,9.42ZM181.61,49.8a.89.89,0,0,1-.89.9h-3.57a.89.89,0,0,1-.7-.35H154.64A19.07,19.07,0,0,1,141.57,17.8,19.15,19.15,0,0,1,147,14H136.87a.9.9,0,0,1,0-1.79h18.18a19.09,19.09,0,0,1,18.37,24.21h3a.91.91,0,0,1,.7-.34h3.57a.89.89,0,0,1,.89.89Z"/><rect class="cls-1" x="122.9" y="53.9" width="15.06" height="43.53" rx="7.08" ry="7.08"/><path class="cls-3" d="M63.12,43.61a3.32,3.32,0,1,0-4.06-2.35A3.32,3.32,0,0,0,63.12,43.61Z"/><path class="cls-4" d="M51.27,42.64l-.83,1.44L64.8,52.41,65.64,51l1.43.83a.87.87,0,0,0,.63.09.85.85,0,0,0,.5-.39l10-17.23a.84.84,0,0,0-.3-1.14l-1-.6a2.94,2.94,0,0,0-4,1.07l-1.25,2.15a8.24,8.24,0,0,1-2,.11l9.33-16.09A5.31,5.31,0,0,0,82.31,19l2.12,1.23a.82.82,0,0,0,1.13-.3l2.5-4.31a.82.82,0,0,0-.3-1.13l-2.11-1.23a7.47,7.47,0,0,0-11.59-6.7L72,5.42a.78.78,0,0,0-.61-.07.84.84,0,0,0-.5.37L68.34,9.91a.77.77,0,0,0-.09.63.82.82,0,0,0,.38.51l2.12,1.23a5.3,5.3,0,0,0,1,3.32L62.44,31.66a9,9,0,0,1-.91-1.74l1.24-2.15a3,3,0,0,0-1.07-4l-1-.6a.81.81,0,0,0-.63-.08.8.8,0,0,0-.5.38l-10,17.23a.83.83,0,0,0,.3,1.14Zm23.34-32a4.15,4.15,0,0,1,5.67-1.51,4.15,4.15,0,1,1-5.67,1.51ZM66.48,31.31l5.59-9.63a.81.81,0,0,1,.5-.39.83.83,0,0,1,.63.09.82.82,0,0,1,.3,1.13l-5.58,9.63a.83.83,0,0,1-1.44-.83ZM60.55,25l.32.19a1.3,1.3,0,0,1,.47,1.76L59.9,29.41a.86.86,0,0,0-.07.68,10.69,10.69,0,0,0,2.05,3.58l0,0c.11.13.23.24.34.37l.23.24a11.17,11.17,0,0,0,3.14,2.19l.08,0c.25.11.51.22.78.32l.29.1c.19.06.38.13.57.18l.46.11.31.08h0a10,10,0,0,0,4.15,0h0a.87.87,0,0,0,.51-.39l1.43-2.48A1.29,1.29,0,0,1,76,34l.33.18L67.18,50l-1.43-.83-12.93-7.5-1.43-.83Z"/><path class="cls-4" d="M46.9,51.61l.09.06,12.93,7.5a2.5,2.5,0,0,0,3.41-.91l.83-1.43a.83.83,0,0,0-.3-1.13l-.72-.42L64,53.84,49.61,45.51,48.77,47l-.72-.42a.83.83,0,0,0-1.13.3l-.83,1.44-.06.11A2.92,2.92,0,0,0,46.9,51.61ZM47.56,49l.38-.66.72.42,12.93,7.5.71.41-.41.72a.83.83,0,0,1-1.14.3L47.88,50.27A1.28,1.28,0,0,1,47.56,49Z"/><path class="cls-3" d="M78.84,15.17a2.5,2.5,0,0,0,.61-4.57,2.57,2.57,0,0,0-3.41.91,2.49,2.49,0,0,0,.91,3.4A2.45,2.45,0,0,0,78.84,15.17Z"/><path class="cls-3" d="M29.48,41.12a3.32,3.32,0,1,0-4,2.41A3.32,3.32,0,0,0,29.48,41.12Z"/><path class="cls-4" d="M22.87,51l.85,1.43L38,43.93l-.85-1.43,1.42-.85a.83.83,0,0,0,.29-1.14L28.63,23.41a.82.82,0,0,0-1.14-.29l-1,.62a2.94,2.94,0,0,0-1,4l1.27,2.13a7.54,7.54,0,0,1-.87,1.78l-9.53-16a5.33,5.33,0,0,0,1-3.34l2.1-1.26A.82.82,0,0,0,19.65,10L17.1,5.72A.84.84,0,0,0,16,5.43L13.87,6.68A7.47,7.47,0,0,0,2.38,13.56l-2,1.28a.84.84,0,0,0-.35.5A.8.8,0,0,0,.11,16L2.54,20.2a.82.82,0,0,0,.51.38.8.8,0,0,0,.64-.09l2.1-1.25A5.32,5.32,0,0,0,9.18,20L18.7,35.92a8.68,8.68,0,0,1-2-.06l-1.27-2.12a2.94,2.94,0,0,0-4-1l-1,.61a.83.83,0,0,0-.29,1.14l10.21,17.1a.82.82,0,0,0,1.14.29ZM6.26,15.09A4.15,4.15,0,1,1,12,16.53,4.16,4.16,0,0,1,6.26,15.09ZM20.35,32.21l-5.7-9.56a.81.81,0,0,1-.1-.62.85.85,0,0,1,.38-.51.83.83,0,0,1,1.14.28l5.71,9.56a.84.84,0,0,1-.29,1.14A.82.82,0,0,1,20.35,32.21ZM12,34.33l.32-.19a1.3,1.3,0,0,1,1.77.45L15.5,37a.8.8,0,0,0,.56.39,10.43,10.43,0,0,0,4.13,0h0l.48-.12.33-.09a10.9,10.9,0,0,0,3.44-1.68.18.18,0,0,0,.07-.05c.22-.16.45-.34.66-.52l.23-.21c.15-.13.29-.27.43-.41s.22-.23.33-.35l.21-.23,0,0a10,10,0,0,0,2-3.64v0a.79.79,0,0,0-.09-.62l-1.47-2.46a1.3,1.3,0,0,1,.45-1.77l.32-.19L37,40.65l-1.42.85L22.73,49.16,21.31,50Z"/><path class="cls-4" d="M28.6,59.19l.09,0,12.83-7.66a2.49,2.49,0,0,0,.86-3.42l-.85-1.42a.82.82,0,0,0-1.13-.29l-.72.43-.85-1.43L24.57,53.86l.86,1.43-.72.42a.83.83,0,0,0-.28,1.14l.85,1.43.07.1A2.92,2.92,0,0,0,28.6,59.19Zm-1.94-1.83-.38-.65.71-.42,12.83-7.66.71-.43.43.71a.84.84,0,0,1-.29,1.14L27.9,57.68A1.27,1.27,0,0,1,26.66,57.36Z"/><path class="cls-3" d="M12.24,13.57A2.44,2.44,0,0,0,12,11.69a2.48,2.48,0,0,0-3.41-.86,2.55,2.55,0,0,0-.86,3.41,2.49,2.49,0,0,0,4.55-.67Z"/><rect class="cls-5" x="36.56" y="53.9" width="15.06" height="43.53" rx="7.08" ry="7.08"/><rect class="cls-6" x="217.62" y="53.55" width="13.96" height="43.53" rx="6.98" ry="6.98"/><rect class="cls-6" x="217.63" width="13.94" height="86.09"/><rect class="cls-7" x="301.8" y="97.07" width="13.98" height="4.62"/><path class="cls-6" d="M301.78,97.07V27h-.94L272.4,94.25H261L232.54,27h-.94l-14-27h17.61l30.85,73.68h1.15L298.15.07h17.61v97Z"/><rect class="cls-6" x="301.8" y="96.22" width="13.98" height="12.43"/><rect class="cls-6" x="141.22" y="-31.47" width="20.47" height="301.2" transform="translate(270.58 -32.32) rotate(90)"/><path class="cls-2" d="M36,123.15v-6.91H33.43v-1.13h6.3v1.13H37.21v6.91Z"/><path class="cls-2" d="M53.47,123.15v-3.53H49.34v3.53H48.09v-8h1.25v3.37h4.13v-3.37h1.24v8Z"/><path class="cls-2" d="M68.67,123.15H63.56v-8h5.11v1.13H64.81v2.28h3.65v1.08H64.81V122h3.86Z"/><path class="cls-2" d="M94.43,119.12c0,2.59-1.41,4.22-3.74,4.22s-3.76-1.63-3.76-4.22,1.45-4.21,3.76-4.21S94.43,116.53,94.43,119.12Zm-6.22,0c0,1.86.93,3.06,2.48,3.06s2.46-1.2,2.46-3.06-.94-3-2.46-3S88.21,117.26,88.21,119.12Z"/><path class="cls-2" d="M104.2,123.15H103v-8h3.18a2.4,2.4,0,0,1,2.67,2.47,2.33,2.33,0,0,1-1.56,2.3l1.8,3.27H107.6L106,120.08H104.2Zm0-4.13H106a1.34,1.34,0,0,0,1.52-1.41,1.37,1.37,0,0,0-1.56-1.4H104.2Z"/><path class="cls-2" d="M117.41,123.15v-8h1.25v8Z"/><path class="cls-2" d="M130.9,123.34c-2.28,0-3.72-1.62-3.72-4.22s1.45-4.21,3.7-4.21a3.22,3.22,0,0,1,3.43,2.67h-1.25a2.1,2.1,0,0,0-2.18-1.5c-1.48,0-2.42,1.17-2.42,3s.94,3.07,2.45,3.07a2,2,0,0,0,2.23-2V120h-2.07V119h3.3v1A3.21,3.21,0,0,1,130.9,123.34Z"/><path class="cls-2" d="M142.92,123.15v-8h1.25v8Z"/><path class="cls-2" d="M153,123.15v-8h1.12l4.13,5.71h.09v-5.71h1.21v8h-1.12l-4.13-5.71h-.09v5.71Z"/><path class="cls-2" d="M172.89,121h-3.06l-.74,2.14h-1.28l2.9-8h1.34l2.9,8h-1.32Zm-2.74-1h2.42l-1.16-3.4h-.09Z"/><path class="cls-2" d="M188.2,123.15h-5v-8h1.25V122h3.76Z"/><path class="cls-2" d="M209.72,115.11a2.67,2.67,0,1,1,0,5.33h-1.86v2.71h-1.24v-8Zm-1.9,4.23h1.57c1.08,0,1.71-.55,1.71-1.55s-.61-1.58-1.71-1.58h-1.57Z"/><path class="cls-2" d="M224.76,121H221.7l-.75,2.14h-1.28l2.91-8h1.34l2.9,8h-1.33ZM222,120h2.43l-1.16-3.4h-.1Z"/><path class="cls-2" d="M236.3,123.15h-1.24v-8h3.18a2.4,2.4,0,0,1,2.66,2.47,2.33,2.33,0,0,1-1.56,2.3l1.8,3.27H239.7l-1.64-3.07H236.3Zm0-4.13h1.8a1.34,1.34,0,0,0,1.52-1.41,1.37,1.37,0,0,0-1.56-1.4H236.3Z"/><path class="cls-2" d="M251.55,123.15v-6.91H249v-1.13h6.3v1.13H252.8v6.91Z"/><path class="cls-2" d="M264.54,121c.11.76.86,1.24,1.93,1.24s1.74-.52,1.74-1.23-.47-1-1.53-1.23l-1-.25c-1.45-.34-2.12-1-2.12-2.22,0-1.43,1.17-2.39,2.93-2.39a2.64,2.64,0,0,1,2.9,2.31h-1.22a1.53,1.53,0,0,0-1.7-1.2c-1,0-1.64.47-1.64,1.19s.42.91,1.47,1.15l.89.22c1.64.38,2.32,1,2.32,2.26,0,1.54-1.19,2.5-3.09,2.5s-3-.92-3.07-2.35Z"/><rect class="cls-6" x="301.8" y="101.19" width="13.98" height="28.22"/><path class="cls-2" d="M283.69,56.09h-1.41a15.66,15.66,0,0,0-1.59-3.83l1-1a1.94,1.94,0,0,0,.57-1.38,1.9,1.9,0,0,0-.57-1.37l-3.19-3.19a2,2,0,0,0-2.75,0l-1,1a16.2,16.2,0,0,0-3.83-1.58V43.32a2,2,0,0,0-1.95-2h-4.51a2,2,0,0,0-1.95,2v1.41a15.59,15.59,0,0,0-3.82,1.59l-1-1c-.74-.74-5.95,3.19-5.95,3.19a1.94,1.94,0,0,0,0,2.75l1,1a16,16,0,0,0-1.58,3.83h-1.42a2,2,0,0,0-2,1.94v4.52a2,2,0,0,0,2,2h1.42a16,16,0,0,0,1.58,3.82l-1,1a2,2,0,0,0,0,2.76l3.19,3.19a2,2,0,0,0,2.76,0l1-1a16,16,0,0,0,3.82,1.58v1.42a2,2,0,0,0,1.95,2H269a2,2,0,0,0,1.95-2V75.85a16.2,16.2,0,0,0,3.83-1.58l1,1a2,2,0,0,0,2.75,0l3.19-3.19a2,2,0,0,0,0-2.76l-1-1a15.59,15.59,0,0,0,1.59-3.82h1.41a2,2,0,0,0,1.95-2V58A1.94,1.94,0,0,0,283.69,56.09Zm.55,6.46a.55.55,0,0,1-.55.54h-2.52l-.12.55a14.88,14.88,0,0,1-1.83,4.42l-.3.47,1.78,1.78a.54.54,0,0,1,0,.78l-3.19,3.19a.55.55,0,0,1-.77,0L275,72.5l-.47.29a14.57,14.57,0,0,1-4.43,1.83l-.54.13v2.52a.54.54,0,0,1-.55.54h-4.51a.55.55,0,0,1-.55-.54V74.75l-.54-.13A14.51,14.51,0,0,1,259,72.79l-.47-.29-1.78,1.78a.56.56,0,0,1-.78,0l-3.19-3.19a.56.56,0,0,1,0-.78l1.78-1.78-.29-.47a14.51,14.51,0,0,1-1.83-4.42l-.13-.55h-2.52a.54.54,0,0,1-.54-.54V58a.54.54,0,0,1,.54-.54h2.52l.13-.54a14.57,14.57,0,0,1,1.83-4.43l.29-.47-1.78-1.78a.55.55,0,0,1,0-.77s3.75-3.41,4-3.19l1.78,1.78.47-.3A14.51,14.51,0,0,1,263.37,46l.54-.13V43.32a.55.55,0,0,1,.55-.55H269a.55.55,0,0,1,.55.55v2.51l.54.13a14.82,14.82,0,0,1,4.43,1.83l.47.3,1.78-1.78a.53.53,0,0,1,.77,0l3.19,3.19a.53.53,0,0,1,0,.77l-1.78,1.78.3.47A14.82,14.82,0,0,1,281.05,57l.12.54h2.52a.55.55,0,0,1,.55.54Z"/></g></g></svg>