<svg xmlns="http://www.w3.org/2000/svg" viewBox="0 0 1200.28 1079.98"><defs><style>.cls-1{fill:#f2f2f2;}.cls-2{fill:#e3cda4;}.cls-3{fill:#cbb896;}.cls-4{fill:#bfa381;}.cls-5{fill:#d85b4b;}.cls-25,.cls-40,.cls-6{font-size:36px;fill:#1d1d1b;font-family:SFProDisplay-Medium, SF Pro Display;}.cls-6{letter-spacing:-0.06em;}.cls-10,.cls-7{letter-spacing:0.01em;}.cls-8{letter-spacing:-0.01em;}.cls-25,.cls-9{letter-spacing:0.01em;}.cls-10,.cls-19{font-size:24px;font-family:SFProDisplay-Regular, SF Pro Display;}.cls-11{letter-spacing:-0.02em;}.cls-12,.cls-19{letter-spacing:0em;}.cls-13{letter-spacing:0.01em;}.cls-14{letter-spacing:-0.01em;}.cls-15{letter-spacing:-0.01em;}.cls-16{letter-spacing:0em;}.cls-17{letter-spacing:-0.01em;}.cls-18{letter-spacing:-0.04em;}.cls-20{letter-spacing:0em;}.cls-21{fill:#fcc010;}.cls-22{fill:#e9473a;}.cls-23{fill:#fbfbfb;}.cls-24{fill:#465b65;}.cls-26{letter-spacing:-0.06em;}.cls-27{letter-spacing:0.01em;}.cls-28{fill:#bf3a2c;}.cls-29{fill:#e2584d;}.cls-30{fill:#efc85f;}.cls-31{fill:#d7b356;}.cls-32{letter-spacing:0em;}.cls-33{letter-spacing:0em;}.cls-34{letter-spacing:0em;}.cls-35{letter-spacing:0.01em;}.cls-36{letter-spacing:0em;}.cls-37{letter-spacing:-0.02em;}.cls-38{fill:#010101;}.cls-39{fill:#fff;}.cls-40{letter-spacing:-0.09em;}.cls-41{letter-spacing:-0.01em;}.cls-42{letter-spacing:0.01em;}.cls-43{letter-spacing:0em;}.cls-44{letter-spacing:-0.01em;}.cls-45{letter-spacing:0em;}.cls-46{letter-spacing:-0.04em;}</style></defs><title>prom</title><g id="katman_2" data-name="katman 2"><g id="katman_1-2" data-name="katman 1"><rect class="cls-1" width="1200.28" height="1079.98"/><path class="cls-2" d="M162.34,149.45h-24.4L92.66,194.58l44,44,45.22-45.07V168.9ZM159.64,177a5.44,5.44,0,1,1,5.44-5.44A5.43,5.43,0,0,1,159.64,177Z"/><polygon class="cls-3" points="92.72 194.55 81.83 205.41 125.79 249.45 136.72 238.55 92.72 194.55"/><path class="cls-4" d="M159.64,166.12a5.44,5.44,0,1,1-5.43,5.43,5.44,5.44,0,0,1,5.43-5.43m0-7.41a12.85,12.85,0,1,0,12.84,12.84,12.85,12.85,0,0,0-12.84-12.84Z"/><path class="cls-5" d="M179.74,196.67a1.88,1.88,0,0,0-.5-.55l-2.61,2.59c1,1.82,7.81,15.89-5.36,29.06-5.08,5.08-16.91,7.22-25.77,2.17s-11.81-15.73-8.17-30a1.85,1.85,0,1,0-3.59-.91c-5.51,21.67,3.85,30.7,9.93,34.16A27.21,27.21,0,0,0,157,236.51c6.48,0,12.84-2.11,16.86-6.12C189.75,214.52,179.84,196.85,179.74,196.67Z"/><path class="cls-5" d="M161,176.79a5.45,5.45,0,0,0,3.13-2.21l-5.29-4.39c-37.68-28.26-77.71-.31-78.11,0a1.85,1.85,0,0,0,2.15,3c.38-.27,38.2-26.68,73.67-.08Z"/><text class="cls-6" transform="translate(276.87 181.55)">Y<tspan class="cls-7" x="20.66" y="0">üzbinle</tspan><tspan class="cls-8" x="134.87" y="0">r</tspan><tspan class="cls-9" x="146.26" y="0">ce Ürün</tspan><tspan class="cls-10"><tspan x="0" y="40">30 </tspan><tspan class="cls-11" x="34.4" y="40">f</tspan><tspan x="41.23" y="40">arklı ka</tspan><tspan class="cls-12" x="112.65" y="40">t</tspan><tspan class="cls-13" x="119.77" y="40">egoride 48</tspan><tspan class="cls-14" x="232.08" y="40">0</tspan><tspan x="246.4" y="40">.000’in ü</tspan><tspan class="cls-15" x="339.74" y="40">z</tspan><tspan class="cls-13" x="350.73" y="40">erinde ürünle ihti</tspan><tspan class="cls-16" x="520.19" y="40">y</tspan><tspan x="531.86" y="40">acınız olan tüm pa</tspan><tspan class="cls-17" x="715.4" y="40">r</tspan><tspan x="722.44" y="40">çalar bu</tspan><tspan class="cls-16" x="803.64" y="40">r</tspan><tspan x="811.04" y="40">ada</tspan><tspan class="cls-18" x="849.14" y="40">,</tspan></tspan><tspan class="cls-19"><tspan x="0" y="80">t</tspan><tspan class="cls-13" x="7.12" y="80">ek tıkla a</tspan><tspan class="cls-20" x="96.07" y="80">y</tspan><tspan class="cls-7" x="107.74" y="80">ağını</tspan><tspan class="cls-14" x="156.61" y="80">z</tspan><tspan class="cls-7" x="167.61" y="80">da!</tspan></tspan></text><path class="cls-21" d="M87,410.55A5.56,5.56,0,0,0,81.44,405H48.1a5.56,5.56,0,0,0,0,11.11H81.44A5.56,5.56,0,0,0,87,410.55Z"/><path class="cls-21" d="M81.44,427.21H59.21a5.56,5.56,0,0,0,0,11.12H81.44a5.56,5.56,0,0,0,0-11.12Z"/><path class="cls-21" d="M81.44,449.44H70.32a5.56,5.56,0,0,0,0,11.11H81.44a5.56,5.56,0,0,0,0-11.11Z"/><path class="cls-22" d="M219.54,446.58,202.87,418.8a5.56,5.56,0,0,0-4.77-2.7H159.21a5.56,5.56,0,0,0-5.55,5.56v55.55a5.56,5.56,0,0,0,5.55,5.56h55.56a5.55,5.55,0,0,0,5.55-5.56V449.44A5.51,5.51,0,0,0,219.54,446.58Z"/><polygon class="cls-23" points="175.88 427.21 194.96 427.21 208.29 449.44 175.88 449.44 175.88 427.21"/><path class="cls-21" d="M159.21,393.88H81.44a5.56,5.56,0,0,0-5.56,5.56v77.77a5.56,5.56,0,0,0,5.56,5.56h83.33V399.44A5.56,5.56,0,0,0,159.21,393.88Z"/><circle class="cls-23" cx="192.55" cy="477.21" r="11.11"/><path class="cls-24" d="M192.55,493.88a16.67,16.67,0,1,1,16.66-16.67A16.69,16.69,0,0,1,192.55,493.88Zm0-22.22a5.56,5.56,0,1,0,5.55,5.55A5.57,5.57,0,0,0,192.55,471.66Z"/><path class="cls-22" d="M164.77,482.77H81.44a5.56,5.56,0,0,1-5.56-5.56V460.55h88.89Z"/><circle class="cls-23" cx="114.77" cy="477.21" r="11.11"/><path class="cls-24" d="M114.77,493.88a16.67,16.67,0,1,1,16.67-16.67A16.69,16.69,0,0,1,114.77,493.88Zm0-22.22a5.56,5.56,0,1,0,5.55,5.55A5.57,5.57,0,0,0,114.77,471.66Z"/><text class="cls-25" transform="translate(276.87 424.56)">Hızlı Gönderi<tspan class="cls-10"><tspan x="0" y="40">Hızlı gönderi logolu tüm ürünle</tspan><tspan class="cls-17" x="309.05" y="40">r</tspan><tspan class="cls-13" x="316.09" y="40">den saat 15:00</tspan><tspan class="cls-26" x="469.9" y="40">’</tspan><tspan x="474.69" y="40">a kadar </tspan><tspan class="cls-12" x="554.92" y="40">v</tspan><tspan x="566.4" y="40">e</tspan><tspan class="cls-17" x="578.93" y="40">r</tspan><tspan class="cls-27" x="585.98" y="40">eceğiniz siparişler aynı gün</tspan><tspan x="0" y="80">ka</tspan><tspan class="cls-17" x="24.18" y="80">r</tspan><tspan class="cls-13" x="31.22" y="80">g</tspan><tspan class="cls-12" x="44.65" y="80">o</tspan><tspan class="cls-20" x="57.27" y="80">y</tspan><tspan x="68.94" y="80">a </tspan><tspan class="cls-12" x="86.39" y="80">v</tspan><tspan class="cls-13" x="97.87" y="80">erili</tspan><tspan class="cls-18" x="133.45" y="80">r.</tspan></tspan></text><path class="cls-28" d="M173.62,638.07H145.5l-40.63,59.37H133Z"/><path class="cls-29" d="M89.25,638.07h28.12L158,697.44H129.87Z"/><path class="cls-30" d="M133,669.32a34.38,34.38,0,1,1-34.38,34.37A34.27,34.27,0,0,1,133,669.32Z"/><path class="cls-31" d="M133,678.69a25,25,0,1,0,25,25A25.07,25.07,0,0,0,133,678.69Zm0,43.75a18.75,18.75,0,1,1,18.75-18.75A18.8,18.8,0,0,1,133,722.44Z"/><text class="cls-25" transform="translate(276.87 668.75)">En <tspan class="cls-32" x="48.12" y="0">K</tspan><tspan x="70.68" y="0">ali</tspan><tspan class="cls-33" x="106.06" y="0">t</tspan><tspan class="cls-7" x="117.52" y="0">eli </tspan><tspan class="cls-34" x="160.91" y="0">M</tspan><tspan x="191.13" y="0">arkalar</tspan><tspan class="cls-10"><tspan x="0" y="40">Alanında en u</tspan><tspan class="cls-35" x="138.16" y="40">z</tspan><tspan x="149.5" y="40">man olan dün</tspan><tspan class="cls-16" x="287.1" y="40">y</tspan><tspan x="298.77" y="40">a markaları ile çözüm ü</tspan><tspan class="cls-17" x="530.32" y="40">r</tspan><tspan x="537.37" y="40">eti</tspan><tspan class="cls-36" x="562.51" y="40">y</tspan><tspan x="574.06" y="40">oruz</tspan><tspan class="cls-18" x="619.02" y="40">.</tspan><tspan x="624.19" y="40"> </tspan><tspan class="cls-12" x="629.35" y="40">K</tspan><tspan class="cls-27" x="644" y="40">a</tspan><tspan class="cls-37" x="656.29" y="40">f</tspan><tspan x="663.11" y="40">anız hep </tspan><tspan class="cls-16" x="754.35" y="40">r</tspan><tspan class="cls-27" x="761.75" y="40">ahat olacak!</tspan></tspan></text><path class="cls-38" d="M180.26,890.58V910.4a8.36,8.36,0,0,1-8.35,8.34h-5l-.07,4.69a1.64,1.64,0,0,1-1.65,1.62,1.68,1.68,0,0,1-.69-.15l-13.28-6.16h-7.09a8.35,8.35,0,0,1-8.35-8.34V890.58a8.36,8.36,0,0,1,8.35-8.35h27.77A8.36,8.36,0,0,1,180.26,890.58ZM177,910.4V890.58a5,5,0,0,0-5-5H144.14a5.05,5.05,0,0,0-5,5V910.4a5.05,5.05,0,0,0,5,5h7.45a1.69,1.69,0,0,1,.7.15l11.3,5.24,0-3.76a1.65,1.65,0,0,1,1.65-1.63h6.62A5,5,0,0,0,177,910.4Z"/><path class="cls-38" d="M165.2,896.59a7.14,7.14,0,0,1-3.41,6.1l-.07,0a4.5,4.5,0,0,0-2.29,4,1.64,1.64,0,0,1-1.59,1.7h-.06a1.65,1.65,0,0,1-1.65-1.6,7.78,7.78,0,0,1,3.94-7,3.87,3.87,0,1,0-5.91-3.28,1.66,1.66,0,0,1-3.31,0,7.18,7.18,0,1,1,14.35,0Z"/><path class="cls-38" d="M160.86,932.9v33.78a8.36,8.36,0,0,1-8.35,8.35H111l-15.21,7.05a1.65,1.65,0,0,1-.69.15,1.68,1.68,0,0,1-1.06-.38,1.64,1.64,0,0,1-.54-1.68L94.81,975H91a8.36,8.36,0,0,1-8.34-8.35V932.9A8.35,8.35,0,0,1,91,924.56h61.55A8.35,8.35,0,0,1,160.86,932.9Zm-3.31,33.78V932.9a5,5,0,0,0-5-5H91a5,5,0,0,0-5,5v33.78a5,5,0,0,0,5,5h6a1.67,1.67,0,0,1,1.31.64,1.64,1.64,0,0,1,.29,1.42l-1,3.84,12.38-5.74a1.66,1.66,0,0,1,.69-.16h41.88A5,5,0,0,0,157.55,966.68Z"/><path class="cls-38" d="M159,910.6a1.65,1.65,0,0,1,.48,1.17,1.65,1.65,0,1,1-3.3,0,1.64,1.64,0,0,1,1.65-1.65A1.67,1.67,0,0,1,159,910.6Z"/><path class="cls-39" d="M157.55,932.9v33.78a5,5,0,0,1-5,5H110.63a1.66,1.66,0,0,0-.69.16l-12.38,5.74,1-3.84a1.64,1.64,0,0,0-.29-1.42,1.67,1.67,0,0,0-1.31-.64H91a5,5,0,0,1-5-5V932.9a5,5,0,0,1,5-5h61.55A5,5,0,0,1,157.55,932.9Zm-7.49,3a1.65,1.65,0,0,0-1.65-1.66H95.07a1.66,1.66,0,0,0,0,3.31h53.34A1.65,1.65,0,0,0,150.06,935.91Zm0,9.11a1.65,1.65,0,0,0-1.65-1.66H95.07a1.66,1.66,0,0,0,0,3.31h53.34A1.65,1.65,0,0,0,150.06,945Zm0,9.11a1.65,1.65,0,0,0-1.65-1.66H95.07a1.66,1.66,0,0,0,0,3.31h53.34A1.65,1.65,0,0,0,150.06,954.13Zm0,9.11a1.66,1.66,0,0,0-1.65-1.66H95.07a1.66,1.66,0,0,0,0,3.31h53.34A1.65,1.65,0,0,0,150.06,963.24Z"/><path class="cls-38" d="M148.41,934.25a1.66,1.66,0,0,1,0,3.31H95.07a1.66,1.66,0,0,1,0-3.31Z"/><path class="cls-38" d="M148.41,943.36a1.66,1.66,0,0,1,0,3.31H95.07a1.66,1.66,0,0,1,0-3.31Z"/><path class="cls-38" d="M148.41,952.47a1.66,1.66,0,0,1,0,3.31H95.07a1.66,1.66,0,0,1,0-3.31Z"/><path class="cls-38" d="M148.41,961.58a1.66,1.66,0,0,1,0,3.31H95.07a1.66,1.66,0,0,1,0-3.31Z"/><text class="cls-40" transform="translate(276.87 912.92)">Y<tspan class="cls-7" x="19.48" y="0">a</tspan><tspan class="cls-41" x="38.5" y="0">r</tspan><tspan class="cls-9" x="49.88" y="0">dıma </tspan><tspan class="cls-34" x="135.59" y="0">H</tspan><tspan class="cls-42" x="161.04" y="0">a</tspan><tspan class="cls-9" x="179.91" y="0">zırız</tspan><tspan class="cls-10"><tspan x="0" y="40">Satın alma işlemlerinden </tspan><tspan class="cls-43" x="253" y="40">t</tspan><tspan x="260.11" y="40">eknik tüm </tspan><tspan class="cls-44" x="364.64" y="40">k</tspan><tspan x="375.95" y="40">onula</tspan><tspan class="cls-16" x="432.12" y="40">r</tspan><tspan x="439.52" y="40">a kadar ge</tspan><tspan class="cls-17" x="545.71" y="40">r</tspan><tspan class="cls-27" x="552.76" y="40">çek bir kişiden </tspan><tspan class="cls-45" x="703.77" y="40">y</tspan><tspan x="715.43" y="40">a</tspan><tspan class="cls-17" x="727.72" y="40">r</tspan><tspan x="734.77" y="40">dım alın!</tspan><tspan x="0" y="80">U</tspan><tspan class="cls-35" x="16.95" y="80">z</tspan><tspan x="28.3" y="80">man des</tspan><tspan class="cls-43" x="115.62" y="80">t</tspan><tspan x="122.74" y="80">ek ekibimiz her işlemini</tspan><tspan class="cls-14" x="357.25" y="80">z</tspan><tspan x="368.25" y="80">de </tspan><tspan class="cls-16" x="399.47" y="80">y</tspan><tspan x="411.14" y="80">anını</tspan><tspan class="cls-15" x="459.47" y="80">z</tspan><tspan class="cls-27" x="470.47" y="80">dadı</tspan><tspan class="cls-46" x="514.95" y="80">r.</tspan></tspan></text></g></g></svg>